<svg xmlns="http://www.w3.org/2000/svg" width="271.996" height="85.229" viewBox="0 0 271.996 85.229"><defs><style>.a{fill:#eeab0c;}.b,.c,.d{fill:#34276c;}.c,.d{font-size:20px;}.c{font-family:Mina-Bold, Mina;font-weight:700;}.d{font-family:Mina-Regular, Mina;font-weight:400;}</style></defs><g transform="translate(-467.004 -52.727)"><g transform="translate(176.093 -9.441)"><path class="a" d="M354.558,81.266s-7.966-9.561-23.023-9.119c-16.8.493-29.7,13.3-29.429,29.957.252,15.575,9.919,24.123,18.539,27.545,4.768,1.893,16.01,4.544,27.018-1.62l5.652,8.328a40.262,40.262,0,0,1-15.638,5.012c-15.421,1.616-35.037-3.542-43.145-22.8a39.863,39.863,0,0,1-3.617-16.693c.457-34.253,32.783-38.963,32.783-38.963s23.149-5.1,38.058,11.342Z" transform="translate(0 0)"/><path class="b" d="M349.939,927l-12.887,19.067s-5.871-2.531-9.458-6.745l15.035-21.177A9.01,9.01,0,0,1,350.052,914a9.188,9.188,0,0,1,7.461,4.177l34.667,48.916-14.922.038ZM308,967.092l9.986-14.13c5.769,5.309,9.759,6.9,9.759,6.9l-4.9,7.273Z" transform="translate(-16.445 -819.733)"/></g><text class="c" transform="translate(577 89)"><tspan x="0" y="0">TRENING &amp; DIETA</tspan></text><text class="d" transform="translate(579 124)"><tspan x="0" y="0">ANDRZEJ CIEPLIK</tspan></text></g></svg>